<?xml version="1.0" encoding="utf-8"?>
<!-- Generator: Adobe Illustrator 16.0.4, SVG Export Plug-In . SVG Version: 6.00 Build 0)  -->
<!DOCTYPE svg PUBLIC "-//W3C//DTD SVG 1.1//EN" "http://www.w3.org/Graphics/SVG/1.1/DTD/svg11.dtd">
<svg version="1.1"
	 id="svg2" inkscape:version="0.91+devel r" sodipodi:docname="applications-system.svg" xmlns:sodipodi="http://sodipodi.sourceforge.net/DTD/sodipodi-0.dtd" xmlns:svg="http://www.w3.org/2000/svg" xmlns:inkscape="http://www.inkscape.org/namespaces/inkscape" xmlns:dc="http://purl.org/dc/elements/1.1/" xmlns:rdf="http://www.w3.org/1999/02/22-rdf-syntax-ns#" xmlns:cc="http://creativecommons.org/ns#"
	 xmlns="http://www.w3.org/2000/svg" xmlns:xlink="http://www.w3.org/1999/xlink" x="0px" y="0px" width="512px" height="512px"
	 viewBox="0 0 512 512" enable-background="new 0 0 512 512" xml:space="preserve">
<sodipodi:namedview  inkscape:window-width="1920" inkscape:pageshadow="2" inkscape:pageopacity="0" inkscape:window-height="1025" inkscape:window-y="29" inkscape:current-layer="svg2" inkscape:window-maximized="1" inkscape:window-x="0" inkscape:document-units="px" borderopacity="1" pagecolor="#ffffff" id="namedview4" bordercolor="#666666" guidetolerance="10" gridtolerance="10" showgrid="false" inkscape:cy="284.41847" inkscape:zoom="2.6074563" inkscape:cx="245.04229" objecttolerance="10">
	</sodipodi:namedview>
<path id="path2986" sodipodi:nodetypes="csssssssssssssssssssscsssssssssssssssssssscssssssssssssssssssscsscsscsssssscsssssscccssssssssscccssssssssccsssss" inkscape:connector-curvature="0" fill="#DFDCD3" d="
	M225.493,479.596c-3.945-1.761-8.143-6.267-10.015-10.753c-0.966-2.312-1.929-11.201-2.753-25.404
	c-0.698-12.017-1.616-22.806-2.042-23.978c-0.563-1.553-3.32-3.019-10.193-5.418c-5.182-1.81-12.983-5.081-17.339-7.271
	s-8.867-3.98-10.027-3.98c-1.301,0-8.415,5.784-18.569,15.099c-9.054,8.305-17.925,15.85-19.714,16.767
	c-3.682,1.889-11.967,2.195-16.244,0.603c-3.402-1.267-39.387-36.723-41.693-41.082c-2.289-4.322-2.044-12.409,0.523-17.309
	c1.169-2.229,8.78-11.268,16.914-20.084c8.756-9.49,14.789-16.857,14.789-18.06c0-1.116-1.792-5.593-3.981-9.947
	c-2.19-4.354-5.455-12.136-7.256-17.292s-4.011-9.757-4.911-10.224c-0.9-0.466-11.47-1.39-23.486-2.053
	c-13.977-0.771-23.384-1.753-26.105-2.728c-5.186-1.856-11.161-8.215-12.005-12.775c-0.343-1.85-0.482-15.554-0.312-30.453
	l0.311-27.091l3.114-3.902c5.504-6.897,8.091-7.59,34.376-9.206c14.878-0.915,23.922-1.884,24.673-2.644
	c0.652-0.659,2.882-5.771,4.954-11.36s5.312-13.236,7.198-16.995s3.431-7.66,3.431-8.67s-6.224-8.66-13.829-17.002
	s-14.881-16.559-16.167-18.259c-3.616-4.783-4.84-10.707-3.409-16.51c1.081-4.381,3.061-6.757,19.59-23.509
	c10.114-10.249,20.085-19.509,22.159-20.577c4.812-2.479,12.464-2.514,17.242-0.077c2.013,1.025,10.84,8.456,19.616,16.513
	c8.776,8.056,16.552,14.985,17.279,15.397c0.766,0.436,5.493-1.226,11.246-3.95c5.459-2.586,13.626-5.948,18.15-7.473
	c6.134-2.067,8.514-3.388,9.36-5.195c0.625-1.332,1.696-12.254,2.381-24.271c1.316-23.108,2.107-26.762,6.873-31.736
	c5.302-5.534,8.351-5.988,37.981-5.656l26.988,0.303l4.222,2.796c7.265,4.81,8.144,7.8,9.854,33.513
	c0.828,12.446,1.731,23.599,2.008,24.783c0.39,1.667,2.613,2.892,9.846,5.416c5.139,1.794,13.367,5.283,18.286,7.754
	c4.919,2.47,9.338,4.491,9.82,4.491c0.481,0,8.379-6.887,17.551-15.304c9.171-8.418,18.372-16.191,20.445-17.275
	c4.902-2.562,12.199-2.539,17.561,0.057c2.546,1.231,11.193,9.102,22.054,20.069c18.644,18.826,20.113,20.98,20.128,29.507
	c0.01,6.03-2.675,9.986-18.703,27.556c-8.715,9.553-15.845,17.774-15.845,18.27s2.274,5.641,5.055,11.436
	c2.78,5.794,6.096,13.909,7.368,18.033c1.58,5.123,2.957,7.771,4.346,8.361c1.117,0.475,12.354,1.508,24.97,2.295
	c25.035,1.563,29.068,2.594,33.266,8.497c3.968,5.58,4.43,9.763,4.086,37.028l-0.328,26.081l-3.063,4.354
	c-5.469,7.776-6.851,8.175-34.625,9.987c-13.571,0.885-24.913,1.848-25.204,2.139s-1.976,4.628-3.744,9.638
	c-1.768,5.01-5.245,13.152-7.727,18.093c-2.481,4.941-4.372,9.594-4.201,10.339s6.941,8.583,15.047,17.418
	c8.104,8.835,15.765,18.093,17.022,20.573c2.671,5.268,2.919,10.845,0.716,16.117c-1.944,4.653-34.946,38.194-40.311,40.97
	c-4.485,2.32-12.655,2.569-17.35,0.529c-1.799-0.782-10.816-8.325-20.039-16.763s-17.502-15.343-18.398-15.345
	c-0.896-0.004-6.092,2.079-11.545,4.628c-5.453,2.548-13.533,5.824-17.956,7.281c-6.113,2.014-8.16,3.157-8.535,4.767
	c-0.271,1.165-1.171,12.302-1.999,24.747c-1.821,27.375-2.868,30.343-12.401,35.17c-2.765,1.399-7.339,1.641-30.488,1.606
	C235.29,480.968,227.787,480.621,225.493,479.596L225.493,479.596z M265.636,358.051c24.568-2.574,45.096-12.372,62.572-29.865
	c13.319-13.333,21.914-28.294,27.09-47.154c3.244-11.824,3.225-37.933-0.037-49.9c-9.898-36.32-35.901-63.062-71.841-73.881
	c-8.374-2.521-10.647-2.761-26.931-2.832c-15.597-0.067-18.849,0.213-26.424,2.28c-37.824,10.325-66.753,40.714-74.657,78.428
	c-7.103,33.883,3.282,68.467,28.022,93.327c12.953,13.017,29.761,22.567,47.97,27.259c5.192,1.338,12.562,2.369,23.056,3.226
	C255.296,359.007,260.326,358.607,265.636,358.051L265.636,358.051z M240.434,315.448c-25.914-7.027-44.05-29.079-45.655-55.513
	c-1.123-18.483,4.825-34.121,17.952-47.193c23.905-23.809,62.077-24.031,85.68-0.501c19.44,19.381,24.104,46.945,12.039,71.141
	c-10.277,20.608-29.211,32.771-52.433,33.68C250.112,317.371,246.202,317.012,240.434,315.448z M269.426,289.824
	c7.158-2.678,15.695-10.612,19.286-17.924c4.404-11.064,4.071-23.788-0.644-32.528c-6.673-12.307-16.575-18.543-30.562-19.248
	c-11.235-0.566-17.961,1.812-26.072,9.226c-10.284,9.397-14.376,22.463-11.073,35.354c2.859,11.158,8.916,18.735,19.104,23.897
	C248.969,293.418,258.754,293.816,269.426,289.824z"/>
</svg>
