<?xml version="1.0" encoding="utf-8"?>
<!-- Generator: Adobe Illustrator 16.0.4, SVG Export Plug-In . SVG Version: 6.00 Build 0)  -->
<!DOCTYPE svg PUBLIC "-//W3C//DTD SVG 1.1//EN" "http://www.w3.org/Graphics/SVG/1.1/DTD/svg11.dtd">
<svg version="1.1" id="katman_1" xmlns="http://www.w3.org/2000/svg" xmlns:xlink="http://www.w3.org/1999/xlink" x="0px" y="0px"
	 width="276.568px" height="255.121px" viewBox="0 0 276.568 255.121" enable-background="new 0 0 276.568 255.121"
	 xml:space="preserve">
<path fill="#DFDCD3" d="M210.066,98.85l-40.974-1.154c-4.841-0.125-10.192-0.284-11.867-0.328c-1.707-0.049-2.986,2.394-2.855,5.417
	c0.119,3.016,0.409,9.452,0.619,14.289l4.198,16.865c0.207,4.836,0.394,8.946,0.417,9.143c0,0.189,1.885,0.215,4.183,0.058
	c2.308-0.177,3.801-4.263,3.363-9.082l-5.148-17.951c-0.44-4.822,3.123-9.33,7.909-10.009l4.035-0.582
	c0.286,2.808,2.643,5.004,5.521,5.004c3.087,0,5.598-2.506,5.598-5.595c0-0.334-0.042-0.667-0.096-0.988l25.18-3.596
	C214.939,99.663,214.916,98.984,210.066,98.85z M119.379,97.368c-1.699,0.05-7.051,0.206-11.887,0.328L66.515,98.85
	c-4.845,0.14-4.89,0.816-0.083,1.496l25.188,3.596c-0.062,0.329-0.103,0.653-0.103,0.988c0,3.091,2.501,5.595,5.579,5.595
	c2.889,0,5.231-2.2,5.526-5.007l4.047,0.581c4.785,0.679,8.344,5.19,7.905,10.011l-5.142,17.953
	c-0.436,4.824,1.071,8.911,3.363,9.077c2.302,0.16,4.184,0.142,4.208-0.055c0-0.195,0.188-4.312,0.384-9.143l4.215-16.863
	c0.217-4.837,0.482-11.277,0.618-14.292C122.346,99.761,121.067,97.318,119.379,97.368z M276.409,29.296
	c-1.312-3.927-5.45-10.982-9.174-15.664c-3.727-4.708-9.788-10.267-13.481-12.363c-3.683-2.11-20.541,2.511-29.077,6.406
	l-6.223,2.842c-8.526,3.895-15.604,7.148-15.744,7.211c-0.154,0.074-1.158,0-1.936-0.307c-0.772-0.343-10.264-2.681-19.403-4.815
	l-16.362-3.819c-9.121-2.133-19.656-4.165-23.39-4.527c-3.749-0.35-19.716,2.321-28.853,4.417l-17.513,4.026
	c-9.137,2.092-17.256,3.989-18.024,4.233c-0.772,0.227-2.936,1.011-3.062,0.935c-0.151-0.072-7.521-3.46-16.055-7.352l-6.222-2.842
	c-8.529-3.895-19.045-7.352-23.38-7.668c-4.345-0.323-15.432,8.92-19.168,13.629C5.617,18.32,1.481,25.376,0.162,29.302
	c-1.334,3.926,5.854,19.405,11.095,27.17L22,72.398c5.241,7.768,8.121,16.751,6.401,19.956c-1.719,3.215-4.062,8.933-5.23,12.697
	c-1.147,3.776,0.184,20.329,1.753,29.586l3.344,19.735c1.58,9.241,4.526,19.896,6.549,23.674
	c2.032,3.799,18.109,10.477,27.212,12.729l4.079,1.019c0.672,0.16,1.384,0.41,2.086,0.643c-13.442,7.257-26.076,15.966-37.249,25.9
	c-1.635,1.463,0.411,3.692,2.16,2.539c14.042-9.338,27.575-18.047,41.704-25.613c2.741,1.421,5.448,3.122,8.001,5.005
	c-11.566,9.239-21.518,21.144-28.463,31.877c-0.854,1.31,0.873,3.063,2.096,1.903c10.371-9.801,19.654-21.271,30.474-30.471
	c2.244,1.996,4.226,4.088,5.71,6.146l0.852,1.184c-12.496,11.979-22.325,28.309-28.097,42.163c-0.64,1.539,1.565,2.57,2.504,1.31
	c9.715-12.883,17.577-27.766,28.461-39.504l3.632,5.021c5.479,7.618,12.624,15.953,15.896,18.554c3.24,2.6,17,4.729,22.409,4.729
	c5.422,0,13.138-0.914,17.158-2.035c4.002-1.124,15.668-13.639,21.159-21.254l3.642-5.036
	c10.914,11.763,18.797,26.729,28.514,39.628c1.013,1.344,2.988-0.095,2.376-1.536c-5.729-13.788-15.546-30.125-28.008-42.085
	l0.71-0.979c1.522-2.104,3.568-4.244,5.872-6.284c10.748,9.155,19.998,20.565,30.265,30.28c1.354,1.281,3.188-0.307,2.19-1.848
	c-6.904-10.636-16.854-22.484-28.392-31.705c2.556-1.875,5.274-3.574,8.001-5.009c14.196,7.603,27.786,16.328,41.816,25.649
	c1.838,1.217,3.473-1.332,1.909-2.729c-11.064-9.834-23.648-18.515-37.019-25.755c0.619-0.191,1.249-0.431,1.855-0.581l4.244-1.065
	c9.099-2.287,19.49-6.055,23.107-8.357c3.61-2.329,9.055-18.866,10.606-28.109l3.354-19.729c1.559-9.259,2.754-20.053,2.652-24.002
	c-0.102-3.935-4.42-15.074-6.146-18.283c-1.709-3.203,1.179-12.189,6.413-19.957L265.3,56.469
	C270.555,48.698,277.732,33.219,276.409,29.296z M21.405,47.363c-4.666-6.917-8.67-13.088-8.91-13.711c0,0,0,0,0-0.726
	c0-0.89,0-0.89,0-0.89c0.355-0.825,3.703-5.329,7.425-10.02c3.738-4.688,7.38-8.82,8.107-9.169
	c0.731-0.351,9.733,3.203,18.254,7.094l1.335,0.623c8.525,3.896,15.381,7.285,15.229,7.523c-0.149,0.247-4.127,7.645-8.562,15.926
	l-7.5,14.014C42.354,66.292,26.075,54.28,21.405,47.363z M153.081,227.742c-1.417,1.066-9.357,1.926-14.791,1.926
	c-5.406,0-11.236-0.444-12.926-0.963c-0.726-0.238-2.402-1.852-4.474-4.141l11.348-10.365c3.333-3.049,6.052-5.541,6.052-5.541
	s2.723,2.492,6.057,5.535l11.542,10.553C154.597,226.268,153.592,227.36,153.081,227.742z M238.319,132.367l-3.346,19.743
	c-1.563,9.244-3.403,17.763-4.116,18.911c-0.678,1.165-8.583,3.949-15.354,5.656c-6.792,1.695-12.104,1.973-11.849,0.623
	c0.256-1.36-3.677-10.879-8.738-18.256c-5.074-7.369-9.22-13.198-9.208-12.941c0.005,0.26,1.159,6.312,2.466,12.877
	c1.29,6.568,2.227,13.566,2.09,15.586c-0.136,2.005-2.436,6.641-3.18,7.689c-0.021,0.029-0.053,0.082-0.079,0.115
	c-8.608-3.479-17.389-6.371-26.19-8.584c-2.414-0.598-3.817,2.938-1.363,3.688c8.564,2.591,16.667,5.693,24.497,9.138
	c-1.058,1.448-2.25,3.103-3.492,4.818c-6.74-3.62-13.771-6.108-20.922-6.784c-2.094-0.188-2.278,2.793-0.298,3.195
	c6.896,1.338,13.016,3.886,18.632,7.195c-1.522,2.098-3.348,4.639-5.295,7.334c-4.712-3.123-9.68-5.562-14.871-6.959
	c-1.957-0.517-3.063,2.262-1.1,3.002c5.035,1.885,9.48,4.407,13.525,7.356c-1.929,2.678-3.864,5.354-5.568,7.729
	c-1.074,1.465-2.129,2.9-3.183,4.295c-0.196-0.16-0.38-0.312-0.577-0.443l-12.409-8.464c-3.724-2.556-6.771-4.708-6.755-4.812
	c0.006-0.096,0.033-4.053,0.033-8.578V182.88c0.089-0.168,0.196-0.287,0.286-0.471l20.166-22.916
	c1.991-4.029-0.039-7.334-4.544-7.334h-38.595c-4.51,0-6.554,3.314-4.531,7.334l20.151,22.916c0.1,0.178,0.201,0.312,0.302,0.482
	V195.5c0,4.525,0.011,8.311,0.011,8.404c0.011,0.096-3.002,2.439-6.74,4.988l-12.412,8.462c-0.186,0.127-0.354,0.28-0.529,0.408
	c-1.15-1.46-2.274-2.96-3.321-4.405c-1.674-2.32-3.565-4.938-5.463-7.559c4.064-2.982,8.566-5.523,13.642-7.432
	c1.686-0.633,0.778-3.479-0.961-3.012c-5.281,1.416-10.336,3.893-15.127,7.066c-1.944-2.69-3.777-5.233-5.304-7.354
	c5.636-3.32,11.791-5.867,18.751-7.232c2.045-0.4,1.464-3.348-0.556-3.146c-7.129,0.674-14.128,3.131-20.832,6.731
	c-1.236-1.719-2.433-3.377-3.483-4.823c7.724-3.392,15.713-6.447,24.185-9.005c2.364-0.717,1.819-4.498-0.683-3.874
	c-8.933,2.235-17.819,5.163-26.531,8.68c-0.049-0.06-0.118-0.16-0.16-0.207c-0.714-0.987-1.868-3.345-2.58-5.207
	c-0.706-1.881,0.276-11.403,1.569-17.979c1.293-6.559,2.378-12.148,2.421-12.418c0.035-0.256-4.087,5.109-9.156,12.48
	c-5.08,7.377-9.156,14.51-9.061,15.828c0.082,1.311-4.775,3.423-11.546,1.73c-6.766-1.67-13.2-3.685-14.312-4.467
	c-1.081-0.771-3.584-10.781-5.152-20.024l-3.342-19.741c-1.567-9.25-2.771-18.69-2.656-20.983c0.087-2.3,2.606-8.736,3.854-11.047
	c1.226-2.302,5.87-10.968,10.295-19.233l16.449-30.728c4.419-8.271,9.162-16.182,10.519-17.587c1.354-1.413,5.088-3.148,5.269-3.203
	c0.173-0.029,7.792-1.779,16.927-3.872l16.885-3.871c9.139-2.116,18.767-3.996,21.393-4.209c2.637-0.21,15.634,2.157,24.768,4.291
	l15.74,3.676c9.137,2.133,16.743,3.92,16.926,3.964c0.154,0.033,1.707,0.846,3.415,1.793c1.707,0.95,7.946,10.748,12.36,19.021
	l16.466,30.725c4.415,8.263,9.049,16.931,10.285,19.233c1.238,2.315,3.755,8.747,3.857,11.047
	C241.104,113.68,239.893,123.123,238.319,132.367z M264.096,32.923c0,0.725,0,0.725,0,0.725c-0.254,0.623-4.262,6.794-8.933,13.711
	c-4.655,6.917-20.938,18.929-25.361,10.657l-7.51-14.011c-4.426-8.281-8.161-15.237-8.293-15.48
	c-0.147-0.253,6.442-4.068,14.963-7.965l1.324-0.625c8.539-3.892,16.302-7.096,17.276-7.121c0.962-0.021,5.375,4.508,9.095,9.194
	c3.705,4.694,7.074,9.199,7.435,10.024C264.096,32.034,264.096,32.034,264.096,32.923z M109.515,48.779
	c2.383,0.755,5.52-2.497,7.036-7.231c1.507-4.745,0.803-9.212-1.576-9.961c-2.365-0.756-5.519,2.484-7.021,7.227
	C106.438,43.558,107.143,48.023,109.515,48.779z M99.934,72.876c2.912,0,5.262-2.016,5.262-4.513c0-2.496-2.347-4.505-5.262-4.505
	c-2.903,0-5.267,2.006-5.267,4.505C94.667,70.86,97.027,72.876,99.934,72.876z M226.194,151.076
	c-3.719-1.856-8.228-0.342-10.076,3.363c-1.856,3.715-0.354,8.225,3.359,10.078c3.706,1.859,8.229,0.359,10.083-3.361
	C231.416,157.434,229.905,152.925,226.194,151.076z M220.929,144.854c2.475,0.386,5.083-3.295,5.857-8.216
	c0.771-4.926-0.592-9.241-3.064-9.615c-2.466-0.384-5.085,3.298-5.853,8.225C217.098,140.16,218.467,144.466,220.929,144.854z
	 M85.457,55.658c4.965,0,9.012-5.051,9.012-11.276c0-6.236-4.044-11.285-9.012-11.285c-4.987,0-9.034,5.049-9.034,11.285
	C76.423,50.606,80.47,55.658,85.457,55.658z M210.758,144.989c-2.6-1.296-5.622-0.534-6.717,1.693
	c-1.121,2.216,0.084,5.077,2.689,6.37c2.592,1.312,5.62,0.556,6.719-1.674C214.573,149.148,213.363,146.289,210.758,144.989z
	 M74.794,73.556c4.144,0,7.507-3.373,7.507-7.522c0-4.152-3.359-7.517-7.507-7.517c-4.155,0-7.521,3.358-7.521,7.517
	C67.273,70.183,70.636,73.556,74.794,73.556z"/>
</svg>
